<svg width="306" height="84" viewBox="0 0 306 84" fill="none" xmlns="http://www.w3.org/2000/svg">
<path fill-rule="evenodd" clip-rule="evenodd" d="M156.498 1.85721C166.989 -1.36946 178.063 -0.391677 187.778 4.79055C197.395 9.87502 204.583 18.5773 207.789 29.0395C214.492 50.844 202.349 74.0174 180.783 80.7641C176.8 82.0352 172.721 82.6219 168.64 82.6219C150.475 82.6219 134.738 70.9863 129.395 53.5818C126.189 43.0218 127.16 31.8751 132.309 22.0973C137.458 12.3195 146.006 5.0839 156.498 1.85721ZM149.115 30.9951C146.395 36.1773 145.812 42.2396 147.56 47.9107C149.309 53.5818 153.098 58.2751 158.343 61.0129C163.589 63.7507 169.515 64.3374 175.149 62.5774C180.783 60.8174 185.446 57.004 188.166 51.724C190.886 46.444 191.469 40.4795 189.721 34.8084C187.972 29.1373 184.183 24.4439 178.938 21.7062C173.789 18.9684 167.669 18.3817 162.132 20.1417C156.498 21.9017 151.835 25.715 149.115 30.9951Z" fill="#FEFEFE"/>
<path fill-rule="evenodd" clip-rule="evenodd" d="M252.864 1.95499C263.355 -1.27167 274.429 -0.293893 284.144 4.88833C293.761 10.0706 300.949 18.675 304.155 29.1373C310.858 50.9418 298.715 74.1152 277.149 80.8619C273.166 82.133 269.086 82.7197 265.006 82.7197C246.841 82.7197 231.103 71.0841 225.761 53.6796C222.555 43.1195 223.526 31.9729 228.675 22.1951C233.823 12.4173 242.372 5.18168 252.864 1.95499ZM245.481 31.0929C242.761 36.2751 242.178 42.3373 243.926 48.0084C245.675 53.6796 249.464 58.3729 254.709 61.1107C259.955 63.8485 265.881 64.4351 271.515 62.6752C277.149 60.9151 281.812 57.1018 284.532 51.8218C287.252 46.5418 287.835 40.5773 286.086 34.9062C284.338 29.2351 280.549 24.5417 275.304 21.8039C270.155 19.0661 264.035 18.4795 258.498 20.2395C252.864 21.9995 248.201 25.8128 245.481 31.0929Z" fill="#FEFEFE"/>
<path d="M119.583 0.683887H99.5717L90.3431 30.9951H110.063L119.583 0.683887Z" fill="#FEFEFE"/>
<path d="M73.8288 29.5284L83.7374 52.8974L87.3317 40.9684H106.955L95.8803 77.2441C95.006 80.0797 92.3831 82.0352 89.3717 82.0352H78.2002C75.4802 82.0352 72.9545 80.373 71.8859 77.733L59.6459 47.6173L47.503 77.6352C46.5316 80.1774 44.0058 81.9374 41.1887 81.9374H29.9201C26.9087 81.9374 24.2858 79.9819 23.4115 77.1463L0 0.683887H19.72L35.2629 52.8974L45.5601 29.3328C47.7944 23.4662 53.4287 19.6528 59.6459 19.6528C65.9602 19.6528 71.5945 23.5639 73.8288 29.5284Z" fill="#FEFEFE"/>
</svg>
