<svg width="180" height="180" viewBox="0 0 180 180" fill="none" xmlns="http://www.w3.org/2000/svg">
<circle cx="90" cy="90" r="90" fill="#00A9DE"/>
<path d="M53.8936 57L68.7568 105.434L78.874 80.4395C80.1864 77.1683 83.3662 75.0312 86.9102 75.0312H94.1074C97.634 75.0312 100.814 77.1626 102.144 80.4395L112.258 105.428L117.822 87.292H136.716L124.893 125.872C123.783 129.518 120.412 132 116.597 132H109.978C107.191 132 104.618 130.652 103.005 128.492C102.6 128.014 102.259 127.45 101.993 126.794L90.4883 98.3672L79.0527 126.592C77.7404 129.863 74.5614 132 71.0176 132H64.3975C60.5819 132 57.2173 129.506 56.1016 125.872L35 57H53.8936ZM146 57L140.462 75.0254H121.568L127.096 57H146Z" fill="black"/>
</svg>
